<?xml version="1.0" encoding="utf-8"?>
<!-- Generator: Adobe Illustrator 24.0.1, SVG Export Plug-In . SVG Version: 6.00 Build 0)  -->
<svg version="1.1" id="Laag_1" xmlns="http://www.w3.org/2000/svg" xmlns:xlink="http://www.w3.org/1999/xlink" x="0px" y="0px"
	 viewBox="0 0 841.89 595.28" style="enable-background:new 0 0 841.89 595.28;" xml:space="preserve">
<style type="text/css">
	.st0{fill:#BCBCBB;}
	.st1{fill:#50C1E6;}
</style>
<g>
	<path class="st0" d="M358.2,160.95h8.1c3.79,0,5.95,2.3,5.95,5.38c0,2.55-1.49,5.02-4.23,6.09l2,6.54h-5.52l-1.7-6.04h-1.86
		l-1.29,6.04h-5.29L358.2,160.95z M361.71,169.3h2.36c1.77,0,2.88-1.06,2.88-2.53c0-1.27-0.8-1.91-2.26-1.91h-2.02L361.71,169.3z"/>
	<path class="st0" d="M383.36,175.38h-5.47l-1.76,3.58h-5.58l9.91-18.01h6.64l1.85,18.01h-5.43L383.36,175.38z M379.72,171.65h3.47
		l-0.27-6.28h-0.11L379.72,171.65z"/>
	<path class="st0" d="M401.75,160.95c4.17,0,7.15,2.53,7.15,6.88c0,6.48-3.79,11.13-9.5,11.13h-8.97l3.83-18.01H401.75z
		 M396.67,174.77h1.97c2.82,0,4.82-2.35,4.82-6.27c0-2.01-1.1-3.37-2.97-3.37h-1.78L396.67,174.77z"/>
	<path class="st0" d="M409.05,178.96l3.83-18.01h5.29l-3.83,18.01H409.05z"/>
	<path class="st0" d="M418.39,171.61c0-6.6,4.44-10.97,9.97-10.97c5.28,0,8.26,3.31,8.26,7.66c0,6.63-4.51,10.97-10.02,10.97
		C421.46,179.27,418.39,175.98,418.39,171.61z M423.76,171.28c0,2.28,1.19,3.77,3.01,3.77c2.42,0,4.49-2.87,4.49-6.44
		c0-2.3-1.2-3.76-3.02-3.76C425.82,164.86,423.76,167.74,423.76,171.28z"/>
</g>
<g>
	<path class="st1" d="M384.65,185.97c4.01,0,6.7,2.56,6.7,6.57c0,3.97-2.86,6.53-7.06,6.53h-2.57v4.92h-5.29v-18.01H384.65z
		 M381.72,195.15h1.49c1.76,0,2.81-0.89,2.81-2.61c0-1.71-1.05-2.6-2.77-2.6h-1.52V195.15z"/>
	<path class="st1" d="M410.94,194.98c0,5.75-3.51,9.31-9.07,9.31c-5.58,0-9.07-3.56-9.07-9.31c0-5.75,3.51-9.32,9.07-9.32
		C407.44,185.66,410.94,189.23,410.94,194.98z M398.19,194.98c0,3.11,1.46,5.09,3.68,5.09c2.22,0,3.68-1.98,3.68-5.09
		c0-3.12-1.47-5.1-3.68-5.1C399.66,189.88,398.19,191.86,398.19,194.98z"/>
	<path class="st1" d="M420.71,185.97c5.47,0,8.68,3.11,8.68,8.87s-3.22,9.14-8.68,9.14h-7.7v-18.01H420.71z M418.3,199.77h1.66
		c2.65,0,4.03-1.61,4.03-4.93c0-3.03-1.5-4.67-4.03-4.67h-1.66V199.77z"/>
	<path class="st1" d="M431.01,194.97c0-5.94,3.43-9.31,8.94-9.31c4.76,0,8.35,3.1,8.36,7.56h-5.07c-0.12-2.05-1.46-3.41-3.29-3.41
		c-2.17,0-3.54,1.92-3.54,5.14c0,3.26,1.36,5.18,3.56,5.18c1.82,0,3.15-1.34,3.31-3.42h5.07c-0.02,4.49-3.53,7.58-8.39,7.58
		C434.43,204.29,431.01,200.91,431.01,194.97z"/>
	<path class="st1" d="M460.04,200.4h-5.49l-0.94,3.58h-5.39l5.88-18.01h6.64l5.88,18.01h-5.64L460.04,200.4z M455.51,196.67h3.57
		l-1.73-6.54h-0.1L455.51,196.67z"/>
	<path class="st1" d="M471.86,198.52c0.2,1.09,1.46,1.71,2.96,1.71c1.58,0,2.56-0.65,2.56-1.54c0-0.85-0.7-1.21-2.72-1.57
		l-1.81-0.32c-3.58-0.64-5.54-2.45-5.54-5.24c0-3.62,3.12-5.9,7.4-5.9c4.82,0,7.51,2.23,7.54,5.79h-4.87
		c-0.04-1.1-1.16-1.73-2.61-1.73c-1.47,0-2.22,0.65-2.22,1.46c0,0.81,0.77,1.2,2.57,1.52l1.81,0.32c3.87,0.7,5.69,2.28,5.69,5.21
		c0,3.71-2.9,6.07-7.86,6.07c-4.67,0-7.75-2.08-7.76-5.77H471.86z"/>
	<path class="st1" d="M488.65,203.98v-13.8h-4.74v-4.21h14.78v4.21h-4.74v13.8H488.65z"/>
</g>
</svg>
