<svg id="Laag_1" data-name="Laag 1" xmlns="http://www.w3.org/2000/svg" viewBox="0 0 144.33 43.66"><defs><style>.cls-1{fill:#bcbcbb;}.cls-2{fill:#50c1e6;}</style></defs><title>LOGOLenny</title><path class="cls-1" d="M358.2,161h8.1c3.79,0,5.95,2.3,5.95,5.38a6.5,6.5,0,0,1-4.23,6.09l2,6.54H364.5l-1.7-6h-1.86l-1.29,6h-5.29Zm3.51,8.35h2.36a2.57,2.57,0,0,0,2.88-2.53c0-1.27-.8-1.91-2.26-1.91h-2Z" transform="translate(-354.36 -160.64)"/><path class="cls-1" d="M383.36,175.38h-5.47L376.13,179h-5.58l9.91-18h6.64L389,179h-5.43Zm-3.64-3.73h3.47l-.27-6.28h-.11Z" transform="translate(-354.36 -160.64)"/><path class="cls-1" d="M401.75,161c4.17,0,7.15,2.53,7.15,6.88,0,6.48-3.79,11.13-9.5,11.13h-9l3.83-18Zm-5.08,13.82h2c2.82,0,4.82-2.35,4.82-6.27,0-2-1.1-3.37-3-3.37h-1.78Z" transform="translate(-354.36 -160.64)"/><path class="cls-1" d="M409.05,179l3.83-18h5.29l-3.83,18Z" transform="translate(-354.36 -160.64)"/><path class="cls-1" d="M418.39,171.61c0-6.6,4.44-11,10-11,5.28,0,8.26,3.31,8.26,7.66,0,6.63-4.51,11-10,11C421.46,179.27,418.39,176,418.39,171.61Zm5.37-.33c0,2.28,1.19,3.77,3,3.77,2.42,0,4.49-2.87,4.49-6.44,0-2.3-1.2-3.76-3-3.76C425.82,164.86,423.76,167.74,423.76,171.28Z" transform="translate(-354.36 -160.64)"/><path class="cls-2" d="M384.65,186c4,0,6.7,2.56,6.7,6.57s-2.86,6.53-7.06,6.53h-2.57V204h-5.29V186h8.22Zm-2.93,9.18h1.49c1.76,0,2.81-.89,2.81-2.61s-1-2.6-2.77-2.6h-1.52v5.21Z" transform="translate(-354.36 -160.64)"/><path class="cls-2" d="M410.94,195c0,5.75-3.51,9.31-9.07,9.31s-9.07-3.56-9.07-9.31,3.51-9.32,9.07-9.32S410.94,189.23,410.94,195Zm-12.75,0c0,3.11,1.46,5.09,3.68,5.09s3.68-2,3.68-5.09-1.47-5.1-3.68-5.1S398.19,191.86,398.19,195Z" transform="translate(-354.36 -160.64)"/><path class="cls-2" d="M420.71,186c5.47,0,8.68,3.11,8.68,8.87s-3.22,9.14-8.68,9.14H413V186Zm-2.41,13.8H420c2.65,0,4-1.61,4-4.93,0-3-1.5-4.67-4-4.67H418.3Z" transform="translate(-354.36 -160.64)"/><path class="cls-2" d="M431,195c0-5.94,3.43-9.31,8.94-9.31,4.76,0,8.35,3.1,8.36,7.56h-5.07a3.31,3.31,0,0,0-3.29-3.41c-2.17,0-3.54,1.92-3.54,5.14s1.36,5.18,3.56,5.18a3.35,3.35,0,0,0,3.31-3.42h5.07c0,4.49-3.53,7.58-8.39,7.58C434.43,204.29,431,200.91,431,195Z" transform="translate(-354.36 -160.64)"/><path class="cls-2" d="M460,200.4h-5.49l-.94,3.58h-5.39l5.88-18h6.64l5.88,18H461Zm-4.53-3.73h3.57l-1.73-6.54h-.1Z" transform="translate(-354.36 -160.64)"/><path class="cls-2" d="M471.86,198.52c.2,1.09,1.46,1.71,3,1.71s2.56-.65,2.56-1.54-.7-1.21-2.72-1.57l-1.81-.32c-3.58-.64-5.54-2.45-5.54-5.24,0-3.62,3.12-5.9,7.4-5.9,4.82,0,7.51,2.23,7.54,5.79h-4.87c0-1.1-1.16-1.73-2.61-1.73s-2.22.65-2.22,1.46.77,1.2,2.57,1.52l1.81.32c3.87.7,5.69,2.28,5.69,5.21,0,3.71-2.9,6.07-7.86,6.07-4.67,0-7.75-2.08-7.76-5.77h4.86Z" transform="translate(-354.36 -160.64)"/><path class="cls-2" d="M488.65,204v-13.8h-4.74V186h14.78v4.21H494V204Z" transform="translate(-354.36 -160.64)"/></svg>